<mxfile host="app.diagrams.net" modified="2020-08-04T08:27:21.947Z" agent="5.0 (Macintosh; Intel Mac OS X 10_15_2) AppleWebKit/537.36 (KHTML, like Gecko) Chrome/84.0.4147.105 Safari/537.36" etag="wCIR6aJobkr4ds_9ZmNF" version="13.5.9" type="github">
  <diagram id="9GKa2ZYjB-jU7frO6Lj7" name="Page-1">
    <mxGraphModel dx="2066" dy="1154" grid="1" gridSize="10" guides="1" tooltips="1" connect="1" arrows="1" fold="1" page="1" pageScale="1" pageWidth="827" pageHeight="1169" math="0" shadow="0">
      <root>
        <mxCell id="0" />
        <mxCell id="1" parent="0" />
        <mxCell id="8lspeTwaeEEpSWpQoLLh-2" style="edgeStyle=orthogonalEdgeStyle;rounded=0;orthogonalLoop=1;jettySize=auto;html=1;" edge="1" parent="1" source="8lspeTwaeEEpSWpQoLLh-1" target="8lspeTwaeEEpSWpQoLLh-4">
          <mxGeometry relative="1" as="geometry">
            <mxPoint x="260" y="390" as="targetPoint" />
          </mxGeometry>
        </mxCell>
        <mxCell id="8lspeTwaeEEpSWpQoLLh-6" style="edgeStyle=orthogonalEdgeStyle;rounded=0;orthogonalLoop=1;jettySize=auto;html=1;" edge="1" parent="1" source="8lspeTwaeEEpSWpQoLLh-1" target="8lspeTwaeEEpSWpQoLLh-7">
          <mxGeometry relative="1" as="geometry">
            <mxPoint x="130" y="700" as="targetPoint" />
          </mxGeometry>
        </mxCell>
        <mxCell id="8lspeTwaeEEpSWpQoLLh-24" value="commit ok" style="edgeLabel;html=1;align=center;verticalAlign=middle;resizable=0;points=[];" vertex="1" connectable="0" parent="8lspeTwaeEEpSWpQoLLh-6">
          <mxGeometry x="-0.24" y="-4" relative="1" as="geometry">
            <mxPoint as="offset" />
          </mxGeometry>
        </mxCell>
        <mxCell id="8lspeTwaeEEpSWpQoLLh-28" value="msg" style="edgeLabel;html=1;align=center;verticalAlign=middle;resizable=0;points=[];" vertex="1" connectable="0" parent="8lspeTwaeEEpSWpQoLLh-6">
          <mxGeometry x="0.64" y="-2" relative="1" as="geometry">
            <mxPoint as="offset" />
          </mxGeometry>
        </mxCell>
        <mxCell id="8lspeTwaeEEpSWpQoLLh-1" value="App" style="rounded=0;whiteSpace=wrap;html=1;" vertex="1" parent="1">
          <mxGeometry x="70" y="360" width="120" height="60" as="geometry" />
        </mxCell>
        <mxCell id="8lspeTwaeEEpSWpQoLLh-26" style="edgeStyle=orthogonalEdgeStyle;rounded=0;orthogonalLoop=1;jettySize=auto;html=1;" edge="1" parent="1" source="8lspeTwaeEEpSWpQoLLh-4" target="8lspeTwaeEEpSWpQoLLh-12">
          <mxGeometry relative="1" as="geometry" />
        </mxCell>
        <mxCell id="8lspeTwaeEEpSWpQoLLh-27" value="msg, status = 0" style="edgeLabel;html=1;align=center;verticalAlign=middle;resizable=0;points=[];" vertex="1" connectable="0" parent="8lspeTwaeEEpSWpQoLLh-26">
          <mxGeometry x="-0.0526" y="1" relative="1" as="geometry">
            <mxPoint as="offset" />
          </mxGeometry>
        </mxCell>
        <mxCell id="8lspeTwaeEEpSWpQoLLh-4" value="primary" style="shape=cylinder2;whiteSpace=wrap;html=1;boundedLbl=1;backgroundOutline=1;size=15;" vertex="1" parent="1">
          <mxGeometry x="310" y="350" width="60" height="80" as="geometry" />
        </mxCell>
        <mxCell id="8lspeTwaeEEpSWpQoLLh-5" value="start tx&lt;br&gt;1. execute tx&lt;br&gt;2. insert new msg, status=0&lt;br&gt;end tx" style="shape=note;strokeWidth=2;fontSize=14;size=20;whiteSpace=wrap;html=1;fillColor=#fff2cc;strokeColor=#d6b656;fontColor=#666600;" vertex="1" parent="1">
          <mxGeometry x="160" y="260" width="190" height="80" as="geometry" />
        </mxCell>
        <mxCell id="8lspeTwaeEEpSWpQoLLh-17" style="edgeStyle=orthogonalEdgeStyle;rounded=0;orthogonalLoop=1;jettySize=auto;html=1;" edge="1" parent="1" source="8lspeTwaeEEpSWpQoLLh-7" target="8lspeTwaeEEpSWpQoLLh-14">
          <mxGeometry relative="1" as="geometry" />
        </mxCell>
        <mxCell id="8lspeTwaeEEpSWpQoLLh-7" value="Message Queue" style="rounded=0;whiteSpace=wrap;html=1;" vertex="1" parent="1">
          <mxGeometry x="70" y="670" width="120" height="60" as="geometry" />
        </mxCell>
        <mxCell id="8lspeTwaeEEpSWpQoLLh-19" style="edgeStyle=orthogonalEdgeStyle;rounded=0;orthogonalLoop=1;jettySize=auto;html=1;entryX=1;entryY=0.5;entryDx=0;entryDy=0;exitX=0.5;exitY=1;exitDx=0;exitDy=0;" edge="1" parent="1" source="8lspeTwaeEEpSWpQoLLh-12" target="8lspeTwaeEEpSWpQoLLh-7">
          <mxGeometry relative="1" as="geometry" />
        </mxCell>
        <mxCell id="8lspeTwaeEEpSWpQoLLh-20" value="msg, status = 0" style="edgeLabel;html=1;align=center;verticalAlign=middle;resizable=0;points=[];" vertex="1" connectable="0" parent="8lspeTwaeEEpSWpQoLLh-19">
          <mxGeometry x="0.5118" y="-1" relative="1" as="geometry">
            <mxPoint as="offset" />
          </mxGeometry>
        </mxCell>
        <mxCell id="8lspeTwaeEEpSWpQoLLh-12" value="checker" style="ellipse;whiteSpace=wrap;html=1;aspect=fixed;" vertex="1" parent="1">
          <mxGeometry x="560" y="350" width="80" height="80" as="geometry" />
        </mxCell>
        <mxCell id="8lspeTwaeEEpSWpQoLLh-16" style="edgeStyle=orthogonalEdgeStyle;rounded=0;orthogonalLoop=1;jettySize=auto;html=1;" edge="1" parent="1" source="8lspeTwaeEEpSWpQoLLh-14" target="8lspeTwaeEEpSWpQoLLh-15">
          <mxGeometry relative="1" as="geometry" />
        </mxCell>
        <mxCell id="8lspeTwaeEEpSWpQoLLh-29" value="sort" style="edgeLabel;html=1;align=center;verticalAlign=middle;resizable=0;points=[];" vertex="1" connectable="0" parent="8lspeTwaeEEpSWpQoLLh-16">
          <mxGeometry x="-0.25" y="-1" relative="1" as="geometry">
            <mxPoint as="offset" />
          </mxGeometry>
        </mxCell>
        <mxCell id="8lspeTwaeEEpSWpQoLLh-22" style="edgeStyle=orthogonalEdgeStyle;rounded=0;orthogonalLoop=1;jettySize=auto;html=1;exitX=1;exitY=0.25;exitDx=0;exitDy=0;entryX=0;entryY=0.688;entryDx=0;entryDy=0;entryPerimeter=0;" edge="1" parent="1" source="8lspeTwaeEEpSWpQoLLh-14" target="8lspeTwaeEEpSWpQoLLh-4">
          <mxGeometry relative="1" as="geometry" />
        </mxCell>
        <mxCell id="8lspeTwaeEEpSWpQoLLh-23" value="msg, status = 1" style="edgeLabel;html=1;align=center;verticalAlign=middle;resizable=0;points=[];" vertex="1" connectable="0" parent="8lspeTwaeEEpSWpQoLLh-22">
          <mxGeometry x="0.2164" y="2" relative="1" as="geometry">
            <mxPoint as="offset" />
          </mxGeometry>
        </mxCell>
        <mxCell id="8lspeTwaeEEpSWpQoLLh-25" value="commit ok" style="edgeLabel;html=1;align=center;verticalAlign=middle;resizable=0;points=[];" vertex="1" connectable="0" parent="8lspeTwaeEEpSWpQoLLh-22">
          <mxGeometry x="-0.5344" y="2" relative="1" as="geometry">
            <mxPoint as="offset" />
          </mxGeometry>
        </mxCell>
        <mxCell id="8lspeTwaeEEpSWpQoLLh-14" value="consumer" style="rounded=0;whiteSpace=wrap;html=1;" vertex="1" parent="1">
          <mxGeometry x="70" y="880" width="120" height="60" as="geometry" />
        </mxCell>
        <mxCell id="8lspeTwaeEEpSWpQoLLh-15" value="replica" style="shape=cylinder2;whiteSpace=wrap;html=1;boundedLbl=1;backgroundOutline=1;size=15;" vertex="1" parent="1">
          <mxGeometry x="310" y="870" width="60" height="80" as="geometry" />
        </mxCell>
      </root>
    </mxGraphModel>
  </diagram>
</mxfile>
